<?xml version="1.0" encoding="utf-8"?>
<!-- Generator: Adobe Illustrator 16.0.0, SVG Export Plug-In . SVG Version: 6.00 Build 0)  -->
<!DOCTYPE svg PUBLIC "-//W3C//DTD SVG 1.1//EN" "http://www.w3.org/Graphics/SVG/1.1/DTD/svg11.dtd">
<svg version="1.1" xmlns="http://www.w3.org/2000/svg" xmlns:xlink="http://www.w3.org/1999/xlink" x="0px" y="0px" width="2000px"
	 height="1000px" viewBox="0 0 2000 1000" enable-background="new 0 0 2000 1000" xml:space="preserve">
<g id="Layer_1" display="none">
	<path display="inline" fill="#FFFFFF" d="M1500,96.875c-37.5,15.625-75,28.125-118.75,31.25c43.75-25,75-65.625,90.625-112.5
		c-40.625,25-84.375,40.625-131.25,50C1306.25,25,1250,0,1193.75,0C1081.25,0,987.5,90.625,987.5,206.25
		c0,15.625,3.125,31.25,6.25,46.875C821.875,243.75,671.875,162.5,568.75,37.5c-18.75,31.25-28.125,65.625-28.125,103.125
		c0,71.875,37.5,134.375,90.625,171.875c-34.375,0-65.625-9.375-93.75-25v3.125c0,100,71.875,181.25,165.625,200
		c-18.75,3.125-34.375,6.25-53.125,6.25c-12.5,0-25,0-37.5-3.125c25,81.25,103.125,140.625,190.625,143.75
		c-68.75,56.25-159.375,87.5-256.25,87.5c-15.625,0-34.375,0-50-3.125c90.625,59.375,200,93.75,315.625,93.75
		c378.125,0,584.375-312.5,584.375-584.375c0-9.375,0-18.75,0-25C1437.5,175,1471.875,137.5,1500,96.875z"/>
</g>
<g id="Layer_3">
	<path fill="#FFFFFF" d="M1019.346,652.911c0-7.622,0-12.703-2.54-20.324c-2.54-5.081-2.54-12.703-5.081-17.784
		c-2.541-5.08-5.081-10.162-7.621-17.783c-5.082-5.081-7.622-10.162-10.163-15.243s-7.622-7.621-12.703-15.243
		c-5.081-5.081-10.162-10.162-12.703-12.702c-2.541-2.541-7.622-7.622-15.243-12.702c-7.622-5.081-12.703-10.162-15.243-10.162
		s-7.622-5.081-15.243-10.162s-12.703-10.162-15.243-10.162c-5.081,0-12.702,0-25.405,0c-17.784,0-35.567,0-50.811,2.54
		c-17.783,2.541-35.567,5.081-53.351,12.703c-17.784,5.081-33.026,12.702-48.27,22.864s-25.405,20.324-33.027,35.567
		c-7.621,15.243-12.702,33.026-12.702,53.351c0,22.864,5.081,43.188,17.783,58.432c12.703,17.783,27.946,30.486,45.729,40.648
		c17.783,10.161,38.107,17.783,58.432,22.864s40.648,7.621,60.972,7.621s38.107-2.54,55.891-5.081
		c17.784-5.081,33.027-10.162,48.27-20.324c15.243-7.621,27.946-20.323,35.567-35.566
		C1014.266,691.019,1019.346,673.234,1019.346,652.911z M960.914,231.187c0-20.324-2.54-40.648-7.621-63.513
		c-5.081-22.865-12.703-43.189-22.865-63.513c-10.162-20.324-22.865-38.107-40.648-50.81
		c-17.784-12.703-38.108-20.324-58.432-20.324c-30.486,0-53.351,10.162-71.134,33.027c-17.783,22.865-25.405,48.27-25.405,81.296
		c0,15.243,2.541,30.486,5.081,48.27s10.162,33.027,17.784,50.81c7.621,17.784,17.783,33.027,27.945,45.729
		s22.865,25.405,38.107,33.026c15.243,7.622,30.486,12.703,48.27,12.703c30.486,0,53.351-10.162,68.594-30.486
		C953.293,289.618,960.914,264.213,960.914,231.187z M897.401,0h213.403l-66.054,38.107h-66.053
		c22.865,15.243,40.648,35.567,53.351,60.973c12.702,25.405,20.324,53.351,20.324,81.296c0,22.865-2.541,45.729-10.162,63.513
		c-7.622,17.784-17.783,33.027-27.945,45.729c-10.162,10.162-20.325,22.864-33.027,30.486
		c-10.162,10.162-20.324,20.324-27.945,30.486c-7.622,10.162-10.162,20.324-10.162,33.026c0,7.622,2.541,17.784,7.622,25.405
		s12.703,15.243,20.324,22.865c7.622,7.621,17.784,15.243,27.946,22.864c10.162,7.622,20.324,17.784,30.486,27.945
		c10.162,10.162,20.324,20.324,27.945,33.027c7.622,12.702,15.244,25.405,20.324,40.647c5.081,15.243,7.622,33.027,7.622,50.811
		c0,53.351-22.864,99.08-68.594,137.188c-48.27,43.188-116.864,63.513-205.781,63.513c-20.324,0-38.108-2.54-58.432-5.081
		c-20.324-2.54-40.648-7.621-58.432-15.243c-20.324-7.621-38.108-17.783-53.351-27.945c-15.243-10.162-27.945-25.405-38.107-43.188
		C595.081,701.181,590,683.396,590,660.532c0-20.324,5.081-40.648,17.784-66.053c10.162-20.324,25.405-38.108,45.729-53.351
		c20.324-15.243,45.729-27.946,71.134-35.567c25.405-7.622,50.81-12.703,76.215-17.784c22.864-2.54,48.27-5.081,73.675-7.621
		c-20.324-27.946-30.486-50.81-30.486-73.675c0-5.081,0-7.622,0-12.703c0-2.541,2.541-7.622,2.541-10.162s2.541-5.081,5.081-10.162
		c2.541-5.081,2.541-7.622,2.541-10.162c-12.703,2.54-25.405,2.54-33.026,2.54c-48.27,0-88.918-15.243-124.485-48.27
		c-35.567-33.026-50.81-71.134-50.81-119.404c0-45.729,15.243-86.377,45.729-121.944c30.486-33.027,68.594-55.891,114.323-66.053
		C836.429,2.541,866.916,0,897.401,0z M1402.963,124.485v63.513h-124.485v124.485h-63.513V187.998H1090.48v-63.513h124.484V0h63.513
		v124.485H1402.963z"/>
</g>
<g id="Layer_2" display="none">
	<path display="inline" fill="#FFFFFF" d="M1186.062,263.33h-128.719v-84.411c0-31.715,21.011-39.097,35.809-39.097
		c14.765,0,90.838,0,90.838,0V0.449l-125.102-0.477c-138.863,0-170.464,103.942-170.464,170.464v92.894h-80.299v143.615h80.299
		c0,184.291,0,406.364,0,406.364h168.919c0,0,0-224.26,0-406.364h113.987L1186.062,263.33z"/>
</g>
</svg>
