<?xml version="1.0" encoding="utf-8"?>
<!-- Generator: Adobe Illustrator 16.0.0, SVG Export Plug-In . SVG Version: 6.00 Build 0)  -->
<!DOCTYPE svg PUBLIC "-//W3C//DTD SVG 1.1//EN" "http://www.w3.org/Graphics/SVG/1.1/DTD/svg11.dtd">
<svg version="1.1" id="Layer_1" xmlns="http://www.w3.org/2000/svg" xmlns:xlink="http://www.w3.org/1999/xlink" x="0px" y="0px"
	 width="2000px" height="1000px" viewBox="0 0 2000 1000" enable-background="new 0 0 2000 1000" xml:space="preserve">
<path fill="#FFFFFF" d="M1500,96.875c-37.5,15.625-75,28.125-118.75,31.25c43.75-25,75-65.625,90.625-112.5
	c-40.625,25-84.375,40.625-131.25,50C1306.25,25,1250,0,1193.75,0C1081.25,0,987.5,90.625,987.5,206.25
	c0,15.625,3.125,31.25,6.25,46.875C821.875,243.75,671.875,162.5,568.75,37.5c-18.75,31.25-28.125,65.625-28.125,103.125
	c0,71.875,37.5,134.375,90.625,171.875c-34.375,0-65.625-9.375-93.75-25v3.125c0,100,71.875,181.25,165.625,200
	c-18.75,3.125-34.375,6.25-53.125,6.25c-12.5,0-25,0-37.5-3.125c25,81.25,103.125,140.625,190.625,143.75
	c-68.75,56.25-159.375,87.5-256.25,87.5c-15.625,0-34.375,0-50-3.125c90.625,59.375,200,93.75,315.625,93.75
	c378.125,0,584.375-312.5,584.375-584.375c0-9.375,0-18.75,0-25C1437.5,175,1471.875,137.5,1500,96.875z"/>
</svg>
