<?xml version="1.0" encoding="utf-8"?>
<!-- Generator: Adobe Illustrator 19.0.0, SVG Export Plug-In . SVG Version: 6.00 Build 0)  -->
<svg version="1.1" id="Layer_1" xmlns="http://www.w3.org/2000/svg" xmlns:xlink="http://www.w3.org/1999/xlink" x="0px" y="0px"
	 viewBox="0 0 500 500" style="enable-background:new 0 0 500 500;" xml:space="preserve">
<style type="text/css">
	.st0{fill:#FFFFFF;stroke:#FFFFFF;stroke-width:13;stroke-miterlimit:10;}
	.st1{fill:#FFFFFF;stroke:#FFFFFF;stroke-miterlimit:10;}
</style>
<g id="XMLID_3_">
	<path id="XMLID_4_" class="st0" d="M52.9,289.1L18.7,154.3h18.4l16,68.2c4,16.8,7.6,33.6,10,46.6h0.4c2.2-13.4,6.4-29.4,11-46.8
		l18-68h18.2l16.4,68.4c3.8,16,7.4,32,9.4,46.2h0.4c2.8-14.8,6.6-29.8,10.8-46.6l17.8-68h17.8l-38.2,134.8h-18.2l-17-70.2
		c-4.2-17.2-7-30.4-8.8-44h-0.4c-2.4,13.4-5.4,26.6-10.4,44l-19.2,70.2H52.9z"/>
	<path id="XMLID_6_" class="st0" d="M269.9,225.9h-52.4v48.6h58.4v14.6h-75.8V154.3h72.8v14.6h-55.4v42.6h52.4V225.9z"/>
	<path id="XMLID_8_" class="st0" d="M298.5,156.1c7.6-1.6,19.6-2.8,31.8-2.8c17.4,0,28.6,3,37,9.8c7,5.2,11.2,13.2,11.2,23.8
		c0,13-8.6,24.4-22.8,29.6v0.4c12.8,3.2,27.8,13.8,27.8,33.8c0,11.6-4.6,20.4-11.4,27c-9.4,8.6-24.6,12.6-46.6,12.6
		c-12,0-21.2-0.8-27-1.6V156.1z M315.9,211.3h15.8c18.4,0,29.2-9.6,29.2-22.6c0-15.8-12-22-29.6-22c-8,0-12.6,0.6-15.4,1.2V211.3z
		 M315.9,275.9c3.4,0.6,8.4,0.8,14.6,0.8c18,0,34.6-6.6,34.6-26.2c0-18.4-15.8-26-34.8-26h-14.4V275.9z"/>
	<path id="XMLID_12_" class="st1" d="M414.5,192.3l13.8,20.8c3.6,5.4,6.6,10.4,9.8,15.8h0.6c3.2-5.8,6.4-10.8,9.6-16l13.6-20.6h19
		l-33,46.8l34,50h-20l-14.2-21.8c-3.8-5.6-7-11-10.4-16.8h-0.4c-3.2,5.8-6.6,11-10.2,16.8l-14,21.8h-19.4l34.4-49.4l-32.8-47.4
		H414.5z"/>
</g>
</svg>
